<svg id="visual" viewBox="0 0 900 600" width="900" height="600" xmlns="http://www.w3.org/2000/svg" xmlns:xlink="http://www.w3.org/1999/xlink" version="1.1"><g><g transform="translate(728 104)"><path d="M0 -40.2L40.2 0L0 40.2L-40.2 0Z" fill="none" stroke="#FFEB02" stroke-width="6"></path></g><g transform="translate(192 323)"><path d="M0 -39L39 0L0 39L-39 0Z" fill="none" stroke="#FFEB02" stroke-width="6"></path></g><g transform="translate(607 73)"><path d="M0 -37L37 0L0 37L-37 0Z" stroke="#FFEB02" fill="none" stroke-width="6"></path></g><g transform="translate(66 560)"><path d="M0 -37L37 0L0 37L-37 0Z" stroke="#FFEB02" fill="none" stroke-width="6"></path></g><g transform="translate(236 253)"><path d="M0 -36L36 0L0 36L-36 0Z" stroke="#FFEB02" fill="none" stroke-width="6"></path></g><g transform="translate(803 377)"><path d="M0 -35L35 0L0 35L-35 0Z" stroke="#FFEB02" fill="none" stroke-width="6"></path></g><g transform="translate(397 272)"><path d="M0 -37L37 0L0 37L-37 0Z" stroke="#FFEB02" fill="none" stroke-width="6"></path></g><g transform="translate(720 571)"><path d="M0 -37L37 0L0 37L-37 0Z" stroke="#FFEB02" fill="none" stroke-width="6"></path></g></g></svg>