<svg id="visual" viewBox="0 0 900 600" width="900" height="600" xmlns="http://www.w3.org/2000/svg" xmlns:xlink="http://www.w3.org/1999/xlink" version="1.1" preserveAspectRatio="none"><rect x="0" y="0" width="900" height="600" fill="#ffffff"></rect><path d="M203 0L188 0L188 86L170 86L170 171L207 171L207 257L219 257L219 343L190 343L190 429L173 429L173 514L180 514L180 600L0 600L0 514L0 514L0 429L0 429L0 343L0 343L0 257L0 257L0 171L0 171L0 86L0 86L0 0L0 0Z" fill="#fff270"></path><path d="M143 0L149 0L149 86L149 86L149 171L111 171L111 257L108 257L108 343L141 343L141 429L137 429L137 514L112 514L112 600L0 600L0 514L0 514L0 429L0 429L0 343L0 343L0 257L0 257L0 171L0 171L0 86L0 86L0 0L0 0Z" fill="#ffeb02"></path><path d="M61 0L56 0L56 86L77 86L77 171L71 171L71 257L57 257L57 343L81 343L81 429L56 429L56 514L80 514L80 600L0 600L0 514L0 514L0 429L0 429L0 343L0 343L0 257L0 257L0 171L0 171L0 86L0 86L0 0L0 0Z" fill="#baac03"></path></svg>