<svg id="visual" viewBox="0 0 900 600" width="900" height="600" xmlns="http://www.w3.org/2000/svg" xmlns:xlink="http://www.w3.org/1999/xlink" version="1.1"><rect x="0" y="0" width="900" height="600" fill="#02060e"></rect><defs><linearGradient id="grad1_0" x1="33.3%" y1="0%" x2="100%" y2="100%"><stop offset="20%" stop-color="#ffeb02" stop-opacity="1"></stop><stop offset="80%" stop-color="#ffeb02" stop-opacity="1"></stop></linearGradient></defs><defs><linearGradient id="grad1_1" x1="33.3%" y1="0%" x2="100%" y2="100%"><stop offset="20%" stop-color="#ffeb02" stop-opacity="1"></stop><stop offset="80%" stop-color="#98d639" stop-opacity="1"></stop></linearGradient></defs><defs><linearGradient id="grad1_2" x1="33.3%" y1="0%" x2="100%" y2="100%"><stop offset="20%" stop-color="#2eb85d" stop-opacity="1"></stop><stop offset="80%" stop-color="#98d639" stop-opacity="1"></stop></linearGradient></defs><defs><linearGradient id="grad1_3" x1="33.3%" y1="0%" x2="100%" y2="100%"><stop offset="20%" stop-color="#2eb85d" stop-opacity="1"></stop><stop offset="80%" stop-color="#009571" stop-opacity="1"></stop></linearGradient></defs><defs><linearGradient id="grad1_4" x1="33.3%" y1="0%" x2="100%" y2="100%"><stop offset="20%" stop-color="#006f72" stop-opacity="1"></stop><stop offset="80%" stop-color="#009571" stop-opacity="1"></stop></linearGradient></defs><defs><linearGradient id="grad1_5" x1="33.3%" y1="0%" x2="100%" y2="100%"><stop offset="20%" stop-color="#006f72" stop-opacity="1"></stop><stop offset="80%" stop-color="#004a5e" stop-opacity="1"></stop></linearGradient></defs><defs><linearGradient id="grad1_6" x1="33.3%" y1="0%" x2="100%" y2="100%"><stop offset="20%" stop-color="#002839" stop-opacity="1"></stop><stop offset="80%" stop-color="#004a5e" stop-opacity="1"></stop></linearGradient></defs><defs><linearGradient id="grad1_7" x1="33.3%" y1="0%" x2="100%" y2="100%"><stop offset="20%" stop-color="#002839" stop-opacity="1"></stop><stop offset="80%" stop-color="#02060e" stop-opacity="1"></stop></linearGradient></defs><defs><linearGradient id="grad2_0" x1="0%" y1="0%" x2="66.7%" y2="100%"><stop offset="20%" stop-color="#ffeb02" stop-opacity="1"></stop><stop offset="80%" stop-color="#ffeb02" stop-opacity="1"></stop></linearGradient></defs><defs><linearGradient id="grad2_1" x1="0%" y1="0%" x2="66.7%" y2="100%"><stop offset="20%" stop-color="#98d639" stop-opacity="1"></stop><stop offset="80%" stop-color="#ffeb02" stop-opacity="1"></stop></linearGradient></defs><defs><linearGradient id="grad2_2" x1="0%" y1="0%" x2="66.7%" y2="100%"><stop offset="20%" stop-color="#98d639" stop-opacity="1"></stop><stop offset="80%" stop-color="#2eb85d" stop-opacity="1"></stop></linearGradient></defs><defs><linearGradient id="grad2_3" x1="0%" y1="0%" x2="66.7%" y2="100%"><stop offset="20%" stop-color="#009571" stop-opacity="1"></stop><stop offset="80%" stop-color="#2eb85d" stop-opacity="1"></stop></linearGradient></defs><defs><linearGradient id="grad2_4" x1="0%" y1="0%" x2="66.7%" y2="100%"><stop offset="20%" stop-color="#009571" stop-opacity="1"></stop><stop offset="80%" stop-color="#006f72" stop-opacity="1"></stop></linearGradient></defs><defs><linearGradient id="grad2_5" x1="0%" y1="0%" x2="66.7%" y2="100%"><stop offset="20%" stop-color="#004a5e" stop-opacity="1"></stop><stop offset="80%" stop-color="#006f72" stop-opacity="1"></stop></linearGradient></defs><defs><linearGradient id="grad2_6" x1="0%" y1="0%" x2="66.7%" y2="100%"><stop offset="20%" stop-color="#004a5e" stop-opacity="1"></stop><stop offset="80%" stop-color="#002839" stop-opacity="1"></stop></linearGradient></defs><defs><linearGradient id="grad2_7" x1="0%" y1="0%" x2="66.7%" y2="100%"><stop offset="20%" stop-color="#02060e" stop-opacity="1"></stop><stop offset="80%" stop-color="#002839" stop-opacity="1"></stop></linearGradient></defs><g transform="translate(900, 0)"><path d="M0 378.6C-21.1 370.7 -42.2 362.8 -63 357.5C-83.9 352.2 -104.4 349.4 -125.9 345.8C-147.3 342.2 -169.7 337.8 -189.3 327.9C-208.9 318 -225.6 302.6 -239.8 285.7C-254 268.9 -265.6 250.5 -278.1 233.3C-290.5 216.2 -303.8 200.2 -317 183C-330.1 165.8 -343.2 147.3 -348.6 126.9C-354 106.5 -351.8 84.2 -355.5 62.7C-359.2 41.2 -368.9 20.6 -378.6 0L0 0Z" fill="#0b1924"></path><path d="M0 331.3C-18.5 324.4 -36.9 317.5 -55.2 312.8C-73.4 308.1 -91.3 305.7 -110.1 302.6C-128.9 299.4 -148.5 295.5 -165.6 286.9C-182.7 278.2 -197.4 264.8 -209.8 250C-222.2 235.3 -232.4 219.2 -243.3 204.2C-254.2 189.1 -265.8 175.2 -277.3 160.1C-288.9 145.1 -300.3 128.9 -305 111C-309.8 93.2 -307.8 73.6 -311.1 54.9C-314.3 36.1 -322.8 18 -331.3 0L0 0Z" fill="#00394d"></path><path d="M0 283.9C-15.8 278 -31.7 272.1 -47.3 268.1C-62.9 264.1 -78.3 262.1 -94.4 259.4C-110.5 256.7 -127.3 253.3 -142 245.9C-156.6 238.5 -169.2 227 -179.8 214.3C-190.5 201.7 -199.2 187.9 -208.6 175C-217.9 162.1 -227.8 150.2 -237.7 137.3C-247.6 124.3 -257.4 110.5 -261.5 95.2C-265.5 79.9 -263.8 63.1 -266.6 47C-269.4 30.9 -276.7 15.5 -283.9 0L0 0Z" fill="#005d6a"></path><path d="M0 236.6C-13.2 231.7 -26.4 226.8 -39.4 223.4C-52.4 220.1 -65.2 218.4 -78.7 216.1C-92.1 213.9 -106.1 211.1 -118.3 204.9C-130.5 198.7 -141 189.1 -149.8 178.6C-158.7 168 -166 156.6 -173.8 145.8C-181.6 135.1 -189.9 125.1 -198.1 114.4C-206.3 103.6 -214.5 92.1 -217.9 79.3C-221.3 66.6 -219.9 52.6 -222.2 39.2C-224.5 25.8 -230.6 12.9 -236.6 0L0 0Z" fill="#008274"></path><path d="M0 189.3C-10.6 185.3 -21.1 181.4 -31.5 178.7C-41.9 176.1 -52.2 174.7 -62.9 172.9C-73.7 171.1 -84.9 168.9 -94.6 163.9C-104.4 159 -112.8 151.3 -119.9 142.9C-127 134.4 -132.8 125.2 -139 116.7C-145.3 108.1 -151.9 100.1 -158.5 91.5C-165.1 82.9 -171.6 73.6 -174.3 63.4C-177 53.2 -175.9 42.1 -177.8 31.3C-179.6 20.6 -184.5 10.3 -189.3 0L0 0Z" fill="#00a769"></path><path d="M0 142C-7.9 139 -15.8 136.1 -23.6 134.1C-31.4 132.1 -39.1 131 -47.2 129.7C-55.2 128.3 -63.6 126.7 -71 122.9C-78.3 119.2 -84.6 113.5 -89.9 107.2C-95.2 100.8 -99.6 93.9 -104.3 87.5C-109 81.1 -113.9 75.1 -118.9 68.6C-123.8 62.2 -128.7 55.2 -130.7 47.6C-132.8 39.9 -131.9 31.6 -133.3 23.5C-134.7 15.5 -138.3 7.7 -142 0L0 0Z" fill="#67c84d"></path><path d="M0 94.6C-5.3 92.7 -10.6 90.7 -15.8 89.4C-21 88 -26.1 87.4 -31.5 86.5C-36.8 85.6 -42.4 84.4 -47.3 82C-52.2 79.5 -56.4 75.7 -59.9 71.4C-63.5 67.2 -66.4 62.6 -69.5 58.3C-72.6 54 -75.9 50.1 -79.2 45.8C-82.5 41.4 -85.8 36.8 -87.2 31.7C-88.5 26.6 -87.9 21 -88.9 15.7C-89.8 10.3 -92.2 5.2 -94.6 0L0 0Z" fill="#cae222"></path><path d="M0 47.3C-2.6 46.3 -5.3 45.4 -7.9 44.7C-10.5 44 -13 43.7 -15.7 43.2C-18.4 42.8 -21.2 42.2 -23.7 41C-26.1 39.7 -28.2 37.8 -30 35.7C-31.7 33.6 -33.2 31.3 -34.8 29.2C-36.3 27 -38 25 -39.6 22.9C-41.3 20.7 -42.9 18.4 -43.6 15.9C-44.3 13.3 -44 10.5 -44.4 7.8C-44.9 5.2 -46.1 2.6 -47.3 0L0 0Z" fill="#ffeb02"></path></g><g transform="translate(0, 600)"><path d="M0 -378.6C21.2 -373.2 42.4 -367.9 64.4 -365.4C86.5 -362.8 109.3 -363.1 129.5 -355.8C149.7 -348.4 167.2 -333.4 185 -320.4C202.8 -307.5 221 -296.6 237.8 -283.4C254.6 -270.3 270 -255 284.2 -238.5C298.4 -222 311.4 -204.3 320.4 -185C329.5 -165.7 334.7 -144.7 342 -124.5C349.4 -104.3 358.9 -85 365.4 -64.4C371.8 -43.8 375.2 -21.9 378.6 0L0 0Z" fill="#0b1924"></path><path d="M0 -331.3C18.5 -326.6 37.1 -321.9 56.4 -319.7C75.6 -317.5 95.6 -317.7 113.3 -311.3C131 -304.8 146.3 -291.7 161.9 -280.4C177.5 -269 193.4 -259.5 208.1 -248C222.8 -236.5 236.3 -223.1 248.7 -208.7C261.1 -194.2 272.4 -178.8 280.4 -161.9C288.3 -145 292.9 -126.6 299.3 -108.9C305.7 -91.3 314 -74.4 319.7 -56.4C325.3 -38.3 328.3 -19.2 331.3 0L0 0Z" fill="#00394d"></path><path d="M0 -283.9C15.9 -279.9 31.8 -275.9 48.3 -274C64.8 -272.1 82 -272.3 97.1 -266.8C112.2 -261.3 125.4 -250 138.7 -240.3C152.1 -230.6 165.8 -222.4 178.4 -212.6C191 -202.7 202.5 -191.2 213.2 -178.9C223.8 -166.5 233.5 -153.2 240.3 -138.8C247.1 -124.3 251 -108.5 256.5 -93.4C262 -78.3 269.2 -63.8 274 -48.3C278.9 -32.9 281.4 -16.4 283.9 0L0 0Z" fill="#005d6a"></path><path d="M0 -236.6C13.2 -233.3 26.5 -229.9 40.3 -228.4C54 -226.8 68.3 -226.9 80.9 -222.3C93.5 -217.7 104.5 -208.4 115.6 -200.3C126.8 -192.2 138.1 -185.4 148.6 -177.1C159.1 -168.9 168.8 -159.4 177.6 -149C186.5 -138.7 194.6 -127.7 200.3 -115.6C205.9 -103.5 209.2 -90.4 213.8 -77.8C218.4 -65.2 224.3 -53.1 228.4 -40.3C232.4 -27.4 234.5 -13.7 236.6 0L0 0Z" fill="#008274"></path><path d="M0 -189.3C10.6 -186.6 21.2 -183.9 32.2 -182.7C43.2 -181.4 54.7 -181.6 64.7 -177.9C74.8 -174.2 83.6 -166.7 92.5 -160.2C101.4 -153.7 110.5 -148.3 118.9 -141.7C127.3 -135.2 135 -127.5 142.1 -119.2C149.2 -111 155.7 -102.2 160.2 -92.5C164.8 -82.8 167.3 -72.3 171 -62.2C174.7 -52.2 179.5 -42.5 182.7 -32.2C185.9 -21.9 187.6 -11 189.3 0L0 0Z" fill="#00a769"></path><path d="M0 -142C7.9 -140 15.9 -138 24.2 -137C32.4 -136.1 41 -136.2 48.6 -133.4C56.1 -130.6 62.7 -125 69.4 -120.2C76.1 -115.3 82.9 -111.2 89.2 -106.3C95.5 -101.4 101.3 -95.6 106.6 -89.4C111.9 -83.2 116.8 -76.6 120.2 -69.4C123.6 -62.1 125.5 -54.2 128.3 -46.7C131 -39.1 134.6 -31.9 137 -24.2C139.4 -16.4 140.7 -8.2 142 0L0 0Z" fill="#67c84d"></path><path d="M0 -94.6C5.3 -93.3 10.6 -92 16.1 -91.3C21.6 -90.7 27.3 -90.8 32.4 -88.9C37.4 -87.1 41.8 -83.3 46.2 -80.1C50.7 -76.9 55.3 -74.1 59.5 -70.9C63.7 -67.6 67.5 -63.7 71.1 -59.6C74.6 -55.5 77.8 -51.1 80.1 -46.3C82.4 -41.4 83.7 -36.2 85.5 -31.1C87.3 -26.1 89.7 -21.3 91.3 -16.1C93 -11 93.8 -5.5 94.6 0L0 0Z" fill="#cae222"></path><path d="M0 -47.3C2.6 -46.7 5.3 -46 8.1 -45.7C10.8 -45.4 13.7 -45.4 16.2 -44.5C18.7 -43.5 20.9 -41.7 23.1 -40.1C25.4 -38.4 27.6 -37.1 29.7 -35.4C31.8 -33.8 33.8 -31.9 35.5 -29.8C37.3 -27.7 38.9 -25.5 40.1 -23.1C41.2 -20.7 41.8 -18.1 42.8 -15.6C43.7 -13 44.9 -10.6 45.7 -8.1C46.5 -5.5 46.9 -2.7 47.3 0L0 0Z" fill="#ffeb02"></path></g></svg>