<svg id="visual" viewBox="0 0 900 600" width="900" height="600" xmlns="http://www.w3.org/2000/svg" xmlns:xlink="http://www.w3.org/1999/xlink" version="1.1"><rect x="0" y="0" width="900" height="600" fill="#ffffff"></rect><defs><linearGradient id="grad1_0" x1="33.3%" y1="0%" x2="100%" y2="100%"><stop offset="20%" stop-color="#ffeb02" stop-opacity="1"></stop><stop offset="80%" stop-color="#ffeb02" stop-opacity="1"></stop></linearGradient></defs><defs><linearGradient id="grad1_1" x1="33.3%" y1="0%" x2="100%" y2="100%"><stop offset="20%" stop-color="#ffeb02" stop-opacity="1"></stop><stop offset="80%" stop-color="#fff49b" stop-opacity="1"></stop></linearGradient></defs><defs><linearGradient id="grad1_2" x1="33.3%" y1="0%" x2="100%" y2="100%"><stop offset="20%" stop-color="#ffffff" stop-opacity="1"></stop><stop offset="80%" stop-color="#fff49b" stop-opacity="1"></stop></linearGradient></defs><defs><linearGradient id="grad2_0" x1="0%" y1="0%" x2="66.7%" y2="100%"><stop offset="20%" stop-color="#ffeb02" stop-opacity="1"></stop><stop offset="80%" stop-color="#ffeb02" stop-opacity="1"></stop></linearGradient></defs><defs><linearGradient id="grad2_1" x1="0%" y1="0%" x2="66.7%" y2="100%"><stop offset="20%" stop-color="#fff49b" stop-opacity="1"></stop><stop offset="80%" stop-color="#ffeb02" stop-opacity="1"></stop></linearGradient></defs><defs><linearGradient id="grad2_2" x1="0%" y1="0%" x2="66.7%" y2="100%"><stop offset="20%" stop-color="#fff49b" stop-opacity="1"></stop><stop offset="80%" stop-color="#ffffff" stop-opacity="1"></stop></linearGradient></defs><g transform="translate(900, 0)"><path d="M0 378.6C-22.6 378.9 -45.2 379.1 -65.7 372.8C-86.3 366.5 -104.8 353.6 -126.2 346.7C-147.6 339.8 -171.7 338.9 -188.5 326.5C-205.3 314.1 -214.6 290.1 -230.8 275C-246.9 259.9 -269.7 253.5 -285.7 239.8C-301.7 226 -310.9 204.8 -319.6 184.5C-328.2 164.2 -336.3 144.9 -343.9 125.2C-351.5 105.4 -358.7 85.2 -364.4 64.2C-370.1 43.3 -374.3 21.7 -378.6 0L0 0Z" fill="#fffacd"></path><path d="M0 252.4C-15.1 252.6 -30.1 252.8 -43.8 248.6C-57.5 244.4 -69.9 235.8 -84.1 231.2C-98.4 226.6 -114.5 225.9 -125.7 217.7C-136.8 209.4 -143.1 193.4 -153.8 183.3C-164.6 173.3 -179.8 169 -190.5 159.8C-201.2 150.7 -207.3 136.5 -213 123C-218.8 109.5 -224.2 96.6 -229.3 83.5C-234.4 70.3 -239.1 56.8 -242.9 42.8C-246.7 28.9 -249.6 14.4 -252.4 0L0 0Z" fill="#fff064"></path><path d="M0 126.2C-7.5 126.3 -15.1 126.4 -21.9 124.3C-28.8 122.2 -34.9 117.9 -42.1 115.6C-49.2 113.3 -57.2 113 -62.8 108.8C-68.4 104.7 -71.5 96.7 -76.9 91.7C-82.3 86.6 -89.9 84.5 -95.2 79.9C-100.6 75.3 -103.6 68.3 -106.5 61.5C-109.4 54.7 -112.1 48.3 -114.6 41.7C-117.2 35.1 -119.6 28.4 -121.5 21.4C-123.4 14.4 -124.8 7.2 -126.2 0L0 0Z" fill="#ffeb02"></path></g><g transform="translate(0, 600)"><path d="M0 -378.6C20.8 -369.2 41.6 -359.8 62.5 -354.5C83.4 -349.2 104.5 -348.1 124.8 -343C145.2 -337.9 164.7 -329 184.5 -319.6C204.3 -310.2 224.2 -300.4 240.4 -286.5C256.6 -272.6 269 -254.7 284.2 -238.5C299.4 -222.2 317.5 -207.6 326.5 -188.5C335.5 -169.4 335.5 -145.7 343 -124.8C350.5 -104 365.6 -86.1 372.8 -65.7C380 -45.4 379.3 -22.7 378.6 0L0 0Z" fill="#fffacd"></path><path d="M0 -252.4C13.9 -246.1 27.7 -239.9 41.7 -236.4C55.6 -232.8 69.7 -232 83.2 -228.7C96.8 -225.3 109.8 -219.3 123 -213C136.2 -206.8 149.5 -200.2 160.3 -191C171.1 -181.8 179.3 -169.8 189.5 -159C199.6 -148.2 211.7 -138.4 217.7 -125.7C223.7 -112.9 223.6 -97.1 228.7 -83.2C233.7 -69.3 243.8 -57.4 248.6 -43.8C253.4 -30.3 252.9 -15.1 252.4 0L0 0Z" fill="#fff064"></path><path d="M0 -126.2C6.9 -123.1 13.9 -119.9 20.8 -118.2C27.8 -116.4 34.8 -116 41.6 -114.3C48.4 -112.6 54.9 -109.7 61.5 -106.5C68.1 -103.4 74.7 -100.1 80.1 -95.5C85.5 -90.9 89.7 -84.9 94.7 -79.5C99.8 -74.1 105.8 -69.2 108.8 -62.8C111.8 -56.5 111.8 -48.6 114.3 -41.6C116.8 -34.7 121.9 -28.7 124.3 -21.9C126.7 -15.1 126.4 -7.6 126.2 0L0 0Z" fill="#ffeb02"></path></g></svg>