<svg id="visual" viewBox="0 0 900 600" width="900" height="600" xmlns="http://www.w3.org/2000/svg" xmlns:xlink="http://www.w3.org/1999/xlink" version="1.1"><rect x="0" y="0" width="900" height="600" fill="#ffffff"></rect><defs><linearGradient id="grad1_0" x1="33.3%" y1="0%" x2="100%" y2="100%"><stop offset="20%" stop-color="#ffeb02" stop-opacity="1"></stop><stop offset="80%" stop-color="#ffeb02" stop-opacity="1"></stop></linearGradient></defs><defs><linearGradient id="grad1_1" x1="33.3%" y1="0%" x2="100%" y2="100%"><stop offset="20%" stop-color="#ffeb02" stop-opacity="1"></stop><stop offset="80%" stop-color="#fff177" stop-opacity="1"></stop></linearGradient></defs><defs><linearGradient id="grad1_2" x1="33.3%" y1="0%" x2="100%" y2="100%"><stop offset="20%" stop-color="#fff8bd" stop-opacity="1"></stop><stop offset="80%" stop-color="#fff177" stop-opacity="1"></stop></linearGradient></defs><defs><linearGradient id="grad1_3" x1="33.3%" y1="0%" x2="100%" y2="100%"><stop offset="20%" stop-color="#fff8bd" stop-opacity="1"></stop><stop offset="80%" stop-color="#ffffff" stop-opacity="1"></stop></linearGradient></defs><defs><linearGradient id="grad2_0" x1="0%" y1="0%" x2="66.7%" y2="100%"><stop offset="20%" stop-color="#ffeb02" stop-opacity="1"></stop><stop offset="80%" stop-color="#ffeb02" stop-opacity="1"></stop></linearGradient></defs><defs><linearGradient id="grad2_1" x1="0%" y1="0%" x2="66.7%" y2="100%"><stop offset="20%" stop-color="#fff177" stop-opacity="1"></stop><stop offset="80%" stop-color="#ffeb02" stop-opacity="1"></stop></linearGradient></defs><defs><linearGradient id="grad2_2" x1="0%" y1="0%" x2="66.7%" y2="100%"><stop offset="20%" stop-color="#fff177" stop-opacity="1"></stop><stop offset="80%" stop-color="#fff8bd" stop-opacity="1"></stop></linearGradient></defs><defs><linearGradient id="grad2_3" x1="0%" y1="0%" x2="66.7%" y2="100%"><stop offset="20%" stop-color="#ffffff" stop-opacity="1"></stop><stop offset="80%" stop-color="#fff8bd" stop-opacity="1"></stop></linearGradient></defs><g transform="translate(900, 0)"><path d="M0 432.7C-77.4 422.4 -154.8 412.1 -216.3 374.7C-277.8 337.3 -323.4 273 -356.8 206C-390.2 139 -411.4 69.5 -432.7 0L0 0Z" fill="#fffbde"></path><path d="M0 324.5C-58.1 316.8 -116.1 309 -162.2 281C-208.4 253 -242.6 204.7 -267.6 154.5C-292.7 104.3 -308.6 52.1 -324.5 0L0 0Z" fill="#fff49b"></path><path d="M0 216.3C-38.7 211.2 -77.4 206 -108.2 187.3C-138.9 168.7 -161.7 136.5 -178.4 103C-195.1 69.5 -205.7 34.8 -216.3 0L0 0Z" fill="#ffee4f"></path><path d="M0 108.2C-19.4 105.6 -38.7 103 -54.1 93.7C-69.5 84.3 -80.9 68.2 -89.2 51.5C-97.6 34.8 -102.9 17.4 -108.2 0L0 0Z" fill="#ffeb02"></path></g><g transform="translate(0, 600)"><path d="M0 -432.7C75.3 -421.2 150.7 -409.7 216.3 -374.7C282 -339.7 338 -281.4 372.4 -215C406.8 -148.6 419.7 -74.3 432.7 0L0 0Z" fill="#fffbde"></path><path d="M0 -324.5C56.5 -315.9 113 -307.2 162.2 -281C211.5 -254.8 253.5 -211 279.3 -161.3C305.1 -111.5 314.8 -55.7 324.5 0L0 0Z" fill="#fff49b"></path><path d="M0 -216.3C37.7 -210.6 75.3 -204.8 108.2 -187.3C141 -169.9 169 -140.7 186.2 -107.5C203.4 -74.3 209.9 -37.2 216.3 0L0 0Z" fill="#ffee4f"></path><path d="M0 -108.2C18.8 -105.3 37.7 -102.4 54.1 -93.7C70.5 -84.9 84.5 -70.3 93.1 -53.8C101.7 -37.2 104.9 -18.6 108.2 0L0 0Z" fill="#ffeb02"></path></g></svg>