<svg id="wave" style="transform:rotate(180deg); transition: 0.3s" viewBox="0 0 1440 490" version="1.1" xmlns="http://www.w3.org/2000/svg" preserveAspectRatio="none"><defs><linearGradient id="sw-gradient-0" x1="0" x2="0" y1="1" y2="0"><stop stop-color="rgba(248, 204, 0, 1)" offset="0%"></stop><stop stop-color="rgba(255, 248, 0, 1)" offset="100%"></stop></linearGradient></defs><path style="transform:translate(0, 0px); opacity:1" fill="url(#sw-gradient-0)" d="M0,196L120,228.7C240,261,480,327,720,294C960,261,1200,131,1440,98C1680,65,1920,131,2160,138.8C2400,147,2640,98,2880,81.7C3120,65,3360,82,3600,114.3C3840,147,4080,196,4320,245C4560,294,4800,343,5040,310.3C5280,278,5520,163,5760,147C6000,131,6240,212,6480,204.2C6720,196,6960,98,7200,81.7C7440,65,7680,131,7920,163.3C8160,196,8400,196,8640,187.8C8880,180,9120,163,9360,130.7C9600,98,9840,49,10080,98C10320,147,10560,294,10800,294C11040,294,11280,147,11520,147C11760,147,12000,294,12240,351.2C12480,408,12720,376,12960,326.7C13200,278,13440,212,13680,155.2C13920,98,14160,49,14400,57.2C14640,65,14880,131,15120,204.2C15360,278,15600,359,15840,359.3C16080,359,16320,278,16560,261.3C16800,245,17040,294,17160,318.5L17280,343L17280,490L17160,490C17040,490,16800,490,16560,490C16320,490,16080,490,15840,490C15600,490,15360,490,15120,490C14880,490,14640,490,14400,490C14160,490,13920,490,13680,490C13440,490,13200,490,12960,490C12720,490,12480,490,12240,490C12000,490,11760,490,11520,490C11280,490,11040,490,10800,490C10560,490,10320,490,10080,490C9840,490,9600,490,9360,490C9120,490,8880,490,8640,490C8400,490,8160,490,7920,490C7680,490,7440,490,7200,490C6960,490,6720,490,6480,490C6240,490,6000,490,5760,490C5520,490,5280,490,5040,490C4800,490,4560,490,4320,490C4080,490,3840,490,3600,490C3360,490,3120,490,2880,490C2640,490,2400,490,2160,490C1920,490,1680,490,1440,490C1200,490,960,490,720,490C480,490,240,490,120,490L0,490Z"></path><defs><linearGradient id="sw-gradient-1" x1="0" x2="0" y1="1" y2="0"><stop stop-color="rgba(255, 235, 2, 1)" offset="0%"></stop><stop stop-color="rgba(255, 179, 11, 1)" offset="100%"></stop></linearGradient></defs><path style="transform:translate(0, 50px); opacity:0.9" fill="url(#sw-gradient-1)" d="M0,0L120,57.2C240,114,480,229,720,253.2C960,278,1200,212,1440,187.8C1680,163,1920,180,2160,196C2400,212,2640,229,2880,220.5C3120,212,3360,180,3600,163.3C3840,147,4080,147,4320,187.8C4560,229,4800,310,5040,326.7C5280,343,5520,294,5760,277.7C6000,261,6240,278,6480,310.3C6720,343,6960,392,7200,383.8C7440,376,7680,310,7920,236.8C8160,163,8400,82,8640,114.3C8880,147,9120,294,9360,359.3C9600,425,9840,408,10080,343C10320,278,10560,163,10800,114.3C11040,65,11280,82,11520,147C11760,212,12000,327,12240,334.8C12480,343,12720,245,12960,245C13200,245,13440,343,13680,351.2C13920,359,14160,278,14400,261.3C14640,245,14880,294,15120,310.3C15360,327,15600,310,15840,294C16080,278,16320,261,16560,212.3C16800,163,17040,82,17160,40.8L17280,0L17280,490L17160,490C17040,490,16800,490,16560,490C16320,490,16080,490,15840,490C15600,490,15360,490,15120,490C14880,490,14640,490,14400,490C14160,490,13920,490,13680,490C13440,490,13200,490,12960,490C12720,490,12480,490,12240,490C12000,490,11760,490,11520,490C11280,490,11040,490,10800,490C10560,490,10320,490,10080,490C9840,490,9600,490,9360,490C9120,490,8880,490,8640,490C8400,490,8160,490,7920,490C7680,490,7440,490,7200,490C6960,490,6720,490,6480,490C6240,490,6000,490,5760,490C5520,490,5280,490,5040,490C4800,490,4560,490,4320,490C4080,490,3840,490,3600,490C3360,490,3120,490,2880,490C2640,490,2400,490,2160,490C1920,490,1680,490,1440,490C1200,490,960,490,720,490C480,490,240,490,120,490L0,490Z"></path></svg>