<svg id="wave" style="transform:rotate(0deg); transition: 0.3s" viewBox="0 0 1440 490" version="1.1" xmlns="http://www.w3.org/2000/svg" preserveAspectRatio="none"><defs><linearGradient id="sw-gradient-0" x1="0" x2="0" y1="1" y2="0"><stop stop-color="rgba(248, 204, 0, 1)" offset="0%"></stop><stop stop-color="rgba(255, 248, 0, 1)" offset="100%"></stop></linearGradient></defs><path style="transform:translate(0, 0px); opacity:1" fill="url(#sw-gradient-0)" d="M0,294L80,277.7C160,261,320,229,480,196C640,163,800,131,960,147C1120,163,1280,229,1440,277.7C1600,327,1760,359,1920,367.5C2080,376,2240,359,2400,318.5C2560,278,2720,212,2880,204.2C3040,196,3200,245,3360,269.5C3520,294,3680,294,3840,245C4000,196,4160,98,4320,89.8C4480,82,4640,163,4800,196C4960,229,5120,212,5280,196C5440,180,5600,163,5760,155.2C5920,147,6080,147,6240,130.7C6400,114,6560,82,6720,65.3C6880,49,7040,49,7200,114.3C7360,180,7520,310,7680,367.5C7840,425,8000,408,8160,351.2C8320,294,8480,196,8640,163.3C8800,131,8960,163,9120,187.8C9280,212,9440,229,9600,253.2C9760,278,9920,310,10080,302.2C10240,294,10400,245,10560,253.2C10720,261,10880,327,11040,334.8C11200,343,11360,294,11440,269.5L11520,245L11520,490L11440,490C11360,490,11200,490,11040,490C10880,490,10720,490,10560,490C10400,490,10240,490,10080,490C9920,490,9760,490,9600,490C9440,490,9280,490,9120,490C8960,490,8800,490,8640,490C8480,490,8320,490,8160,490C8000,490,7840,490,7680,490C7520,490,7360,490,7200,490C7040,490,6880,490,6720,490C6560,490,6400,490,6240,490C6080,490,5920,490,5760,490C5600,490,5440,490,5280,490C5120,490,4960,490,4800,490C4640,490,4480,490,4320,490C4160,490,4000,490,3840,490C3680,490,3520,490,3360,490C3200,490,3040,490,2880,490C2720,490,2560,490,2400,490C2240,490,2080,490,1920,490C1760,490,1600,490,1440,490C1280,490,1120,490,960,490C800,490,640,490,480,490C320,490,160,490,80,490L0,490Z"></path><defs><linearGradient id="sw-gradient-1" x1="0" x2="0" y1="1" y2="0"><stop stop-color="rgba(255, 235, 2, 1)" offset="0%"></stop><stop stop-color="rgba(255, 179, 11, 1)" offset="100%"></stop></linearGradient></defs><path style="transform:translate(0, 50px); opacity:0.9" fill="url(#sw-gradient-1)" d="M0,98L80,106.2C160,114,320,131,480,179.7C640,229,800,310,960,359.3C1120,408,1280,425,1440,383.8C1600,343,1760,245,1920,236.8C2080,229,2240,310,2400,343C2560,376,2720,359,2880,294C3040,229,3200,114,3360,81.7C3520,49,3680,98,3840,138.8C4000,180,4160,212,4320,212.3C4480,212,4640,180,4800,171.5C4960,163,5120,180,5280,220.5C5440,261,5600,327,5760,326.7C5920,327,6080,261,6240,245C6400,229,6560,261,6720,269.5C6880,278,7040,261,7200,269.5C7360,278,7520,310,7680,302.2C7840,294,8000,245,8160,245C8320,245,8480,294,8640,310.3C8800,327,8960,310,9120,261.3C9280,212,9440,131,9600,147C9760,163,9920,278,10080,343C10240,408,10400,425,10560,359.3C10720,294,10880,147,11040,81.7C11200,16,11360,33,11440,40.8L11520,49L11520,490L11440,490C11360,490,11200,490,11040,490C10880,490,10720,490,10560,490C10400,490,10240,490,10080,490C9920,490,9760,490,9600,490C9440,490,9280,490,9120,490C8960,490,8800,490,8640,490C8480,490,8320,490,8160,490C8000,490,7840,490,7680,490C7520,490,7360,490,7200,490C7040,490,6880,490,6720,490C6560,490,6400,490,6240,490C6080,490,5920,490,5760,490C5600,490,5440,490,5280,490C5120,490,4960,490,4800,490C4640,490,4480,490,4320,490C4160,490,4000,490,3840,490C3680,490,3520,490,3360,490C3200,490,3040,490,2880,490C2720,490,2560,490,2400,490C2240,490,2080,490,1920,490C1760,490,1600,490,1440,490C1280,490,1120,490,960,490C800,490,640,490,480,490C320,490,160,490,80,490L0,490Z"></path></svg>